<svg width="352.8" height="56" viewBox="0 0 352.8 56" xmlns="http://www.w3.org/2000/svg"><g id="svgGroup" stroke-linecap="round" fill-rule="evenodd" font-size="9pt" stroke="#ffffff" stroke-width="0.25mm" fill="#ffffff" style="stroke:#ffffff;stroke-width:0.25mm;fill:#ffffff"><path d="M 128.4 24 L 131.4 24 L 144.4 24 Q 144.147 25.013 144.054 26.345 A 23.85 23.85 0 0 0 144 28 Q 144 29.294 144.127 30.398 A 13.936 13.936 0 0 0 144.4 32 Q 144.147 33.013 144.054 34.345 A 23.85 23.85 0 0 0 144 36 Q 144 37.294 144.127 38.398 A 13.936 13.936 0 0 0 144.4 40 Q 144.147 41.013 144.054 42.345 A 23.85 23.85 0 0 0 144 44 Q 144 45.294 144.127 46.398 A 13.936 13.936 0 0 0 144.4 48 Q 144.147 49.013 144.054 50.345 A 23.85 23.85 0 0 0 144 52 Q 144 53.294 144.127 54.398 A 13.936 13.936 0 0 0 144.4 56 L 152.4 56 A 12.311 12.311 0 0 0 152.507 55.496 Q 152.8 53.968 152.8 52 A 25.306 25.306 0 0 0 152.774 50.833 Q 152.698 49.194 152.4 48 A 12.311 12.311 0 0 0 152.507 47.496 Q 152.8 45.968 152.8 44 A 25.306 25.306 0 0 0 152.774 42.833 Q 152.698 41.194 152.4 40 A 12.311 12.311 0 0 0 152.507 39.496 Q 152.8 37.968 152.8 36 A 25.306 25.306 0 0 0 152.774 34.833 Q 152.698 33.194 152.4 32 A 12.311 12.311 0 0 0 152.507 31.496 Q 152.8 29.968 152.8 28 A 25.306 25.306 0 0 0 152.774 26.833 Q 152.698 25.194 152.4 24 L 147.4 24 A 12.311 12.311 0 0 0 147.507 23.496 Q 147.8 21.968 147.8 20 A 25.306 25.306 0 0 0 147.774 18.833 Q 147.698 17.194 147.4 16 L 131.4 16 Q 131.147 17.013 131.054 18.345 A 23.85 23.85 0 0 0 131 20 Q 131 21.294 131.127 22.398 A 13.936 13.936 0 0 0 131.4 24 A 11.741 11.741 0 0 1 131.644 25.313 Q 131.737 26.018 131.774 26.833 A 25.306 25.306 0 0 1 131.8 28 Q 131.8 29.968 131.507 31.496 A 12.311 12.311 0 0 1 131.4 32 L 128.4 32 A 11.741 11.741 0 0 1 128.644 33.313 Q 128.737 34.018 128.774 34.833 A 25.306 25.306 0 0 1 128.8 36 Q 128.8 37.968 128.507 39.496 A 12.311 12.311 0 0 1 128.4 40 A 11.741 11.741 0 0 1 128.644 41.313 Q 128.737 42.018 128.774 42.833 A 25.306 25.306 0 0 1 128.8 44 Q 128.8 45.968 128.507 47.496 A 12.311 12.311 0 0 1 128.4 48 A 11.741 11.741 0 0 1 128.644 49.313 Q 128.737 50.018 128.774 50.833 A 25.306 25.306 0 0 1 128.8 52 Q 128.8 53.968 128.507 55.496 A 12.311 12.311 0 0 1 128.4 56 L 120.4 56 A 13.936 13.936 0 0 1 120.127 54.398 Q 120 53.294 120 52 A 23.85 23.85 0 0 1 120.054 50.345 Q 120.147 49.013 120.4 48 A 13.936 13.936 0 0 1 120.127 46.398 Q 120 45.294 120 44 A 23.85 23.85 0 0 1 120.054 42.345 Q 120.147 41.013 120.4 40 A 13.936 13.936 0 0 1 120.127 38.398 Q 120 37.294 120 36 A 23.85 23.85 0 0 1 120.054 34.345 Q 120.147 33.013 120.4 32 A 13.936 13.936 0 0 1 120.127 30.398 Q 120 29.294 120 28 A 23.85 23.85 0 0 1 120.054 26.345 Q 120.147 25.013 120.4 24 A 13.936 13.936 0 0 1 120.127 22.398 Q 120 21.294 120 20 A 23.85 23.85 0 0 1 120.054 18.345 Q 120.147 17.013 120.4 16 A 13.936 13.936 0 0 1 120.127 14.398 Q 120 13.294 120 12 A 23.85 23.85 0 0 1 120.054 10.345 Q 120.147 9.013 120.4 8 A 13.936 13.936 0 0 1 120.127 6.398 Q 120 5.294 120 4 A 23.85 23.85 0 0 1 120.054 2.345 Q 120.147 1.013 120.4 0 L 128.4 0 A 11.741 11.741 0 0 1 128.644 1.313 Q 128.737 2.018 128.774 2.833 A 25.306 25.306 0 0 1 128.8 4 Q 128.8 5.968 128.507 7.496 A 12.311 12.311 0 0 1 128.4 8 A 11.741 11.741 0 0 1 128.644 9.313 Q 128.737 10.018 128.774 10.833 A 25.306 25.306 0 0 1 128.8 12 Q 128.8 13.968 128.507 15.496 A 12.311 12.311 0 0 1 128.4 16 A 11.741 11.741 0 0 1 128.644 17.313 Q 128.737 18.018 128.774 18.833 A 25.306 25.306 0 0 1 128.8 20 Q 128.8 21.968 128.507 23.496 A 12.311 12.311 0 0 1 128.4 24 Z M 180.4 48 A 13.936 13.936 0 0 1 180.127 46.398 Q 180 45.294 180 44 A 23.85 23.85 0 0 1 180.054 42.345 Q 180.147 41.013 180.4 40 L 168.4 40 A 11.741 11.741 0 0 1 168.644 41.313 Q 168.737 42.018 168.774 42.833 A 25.306 25.306 0 0 1 168.8 44 Q 168.8 45.968 168.507 47.496 A 12.311 12.311 0 0 1 168.4 48 L 180.4 48 L 184.4 48 Q 184.147 49.013 184.054 50.345 A 23.85 23.85 0 0 0 184 52 Q 184 53.294 184.127 54.398 A 13.936 13.936 0 0 0 184.4 56 L 192.4 56 A 12.311 12.311 0 0 0 192.507 55.496 Q 192.8 53.968 192.8 52 A 25.306 25.306 0 0 0 192.774 50.833 Q 192.698 49.194 192.4 48 L 188.4 48 A 12.311 12.311 0 0 0 188.507 47.496 Q 188.8 45.968 188.8 44 A 25.306 25.306 0 0 0 188.774 42.833 Q 188.737 42.018 188.644 41.313 A 11.741 11.741 0 0 0 188.4 40 A 12.311 12.311 0 0 0 188.507 39.496 Q 188.8 37.968 188.8 36 A 25.306 25.306 0 0 0 188.774 34.833 Q 188.737 34.018 188.644 33.313 A 11.741 11.741 0 0 0 188.4 32 A 12.311 12.311 0 0 0 188.507 31.496 Q 188.8 29.968 188.8 28 A 25.306 25.306 0 0 0 188.774 26.833 Q 188.737 26.018 188.644 25.313 A 11.741 11.741 0 0 0 188.4 24 L 184.4 24 A 12.311 12.311 0 0 0 184.507 23.496 Q 184.8 21.968 184.8 20 A 25.306 25.306 0 0 0 184.774 18.833 Q 184.698 17.194 184.4 16 L 166.4 16 Q 166.147 17.013 166.054 18.345 A 23.85 23.85 0 0 0 166 20 Q 166 21.294 166.127 22.398 A 13.936 13.936 0 0 0 166.4 24 L 180.4 24 Q 180.147 25.013 180.054 26.345 A 23.85 23.85 0 0 0 180 28 Q 180 29.294 180.127 30.398 A 13.936 13.936 0 0 0 180.4 32 L 164.4 32 Q 164.147 33.013 164.054 34.345 A 23.85 23.85 0 0 0 164 36 Q 164 37.294 164.127 38.398 A 13.936 13.936 0 0 0 164.4 40 L 160.4 40 Q 160.147 41.013 160.054 42.345 A 23.85 23.85 0 0 0 160 44 Q 160 45.294 160.127 46.398 A 13.936 13.936 0 0 0 160.4 48 L 164.4 48 Q 164.147 49.013 164.054 50.345 A 23.85 23.85 0 0 0 164 52 Q 164 53.294 164.127 54.398 A 13.936 13.936 0 0 0 164.4 56 L 180.4 56 A 12.311 12.311 0 0 0 180.507 55.496 Q 180.8 53.968 180.8 52 A 25.306 25.306 0 0 0 180.774 50.833 Q 180.698 49.194 180.4 48 Z M 110.4 48 L 106.4 48 Q 106.698 49.194 106.774 50.833 A 25.306 25.306 0 0 1 106.8 52 Q 106.8 53.968 106.507 55.496 A 12.311 12.311 0 0 1 106.4 56 L 84.4 56 A 13.936 13.936 0 0 1 84.127 54.398 Q 84 53.294 84 52 A 23.85 23.85 0 0 1 84.054 50.345 Q 84.147 49.013 84.4 48 L 102.4 48 A 13.936 13.936 0 0 1 102.127 46.398 Q 102 45.294 102 44 A 23.85 23.85 0 0 1 102.054 42.345 Q 102.147 41.013 102.4 40 L 86.4 40 A 13.936 13.936 0 0 1 86.127 38.398 Q 86 37.294 86 36 A 23.85 23.85 0 0 1 86.054 34.345 Q 86.147 33.013 86.4 32 L 82.4 32 A 13.936 13.936 0 0 1 82.127 30.398 Q 82 29.294 82 28 A 23.85 23.85 0 0 1 82.054 26.345 Q 82.147 25.013 82.4 24 L 86.4 24 A 13.936 13.936 0 0 1 86.127 22.398 Q 86 21.294 86 20 A 23.85 23.85 0 0 1 86.054 18.345 Q 86.147 17.013 86.4 16 L 108.4 16 A 11.741 11.741 0 0 1 108.644 17.313 Q 108.737 18.018 108.774 18.833 A 25.306 25.306 0 0 1 108.8 20 Q 108.8 21.968 108.507 23.496 A 12.311 12.311 0 0 1 108.4 24 L 90.4 24 A 11.741 11.741 0 0 1 90.644 25.313 Q 90.737 26.018 90.774 26.833 A 25.306 25.306 0 0 1 90.8 28 Q 90.8 29.968 90.507 31.496 A 12.311 12.311 0 0 1 90.4 32 L 106.4 32 Q 106.698 33.194 106.774 34.833 A 25.306 25.306 0 0 1 106.8 36 Q 106.8 37.968 106.507 39.496 A 12.311 12.311 0 0 1 106.4 40 L 110.4 40 Q 110.698 41.194 110.774 42.833 A 25.306 25.306 0 0 1 110.8 44 Q 110.8 45.968 110.507 47.496 A 12.311 12.311 0 0 1 110.4 48 Z M 5.4 24 L 8.4 24 L 13.4 24 Q 13.147 25.013 13.054 26.345 A 23.85 23.85 0 0 0 13 28 Q 13 29.294 13.127 30.398 A 13.936 13.936 0 0 0 13.4 32 Q 13.147 33.013 13.054 34.345 A 23.85 23.85 0 0 0 13 36 Q 13 37.294 13.127 38.398 A 13.936 13.936 0 0 0 13.4 40 Q 13.147 41.013 13.054 42.345 A 23.85 23.85 0 0 0 13 44 Q 13 45.294 13.127 46.398 A 13.936 13.936 0 0 0 13.4 48 Q 13.147 49.013 13.054 50.345 A 23.85 23.85 0 0 0 13 52 Q 13 53.294 13.127 54.398 A 13.936 13.936 0 0 0 13.4 56 L 19.4 56 A 12.311 12.311 0 0 0 19.507 55.496 Q 19.8 53.968 19.8 52 A 25.306 25.306 0 0 0 19.774 50.833 Q 19.698 49.194 19.4 48 A 12.311 12.311 0 0 0 19.507 47.496 Q 19.8 45.968 19.8 44 A 25.306 25.306 0 0 0 19.774 42.833 Q 19.698 41.194 19.4 40 A 12.311 12.311 0 0 0 19.507 39.496 Q 19.8 37.968 19.8 36 A 25.306 25.306 0 0 0 19.774 34.833 Q 19.698 33.194 19.4 32 A 12.311 12.311 0 0 0 19.507 31.496 Q 19.8 29.968 19.8 28 A 25.306 25.306 0 0 0 19.774 26.833 Q 19.698 25.194 19.4 24 L 16.4 24 A 12.311 12.311 0 0 0 16.507 23.496 Q 16.8 21.968 16.8 20 A 25.306 25.306 0 0 0 16.774 18.833 Q 16.698 17.194 16.4 16 L 8.4 16 Q 8.147 17.013 8.054 18.345 A 23.85 23.85 0 0 0 8 20 Q 8 21.294 8.127 22.398 A 13.936 13.936 0 0 0 8.4 24 A 11.741 11.741 0 0 1 8.644 25.313 Q 8.737 26.018 8.774 26.833 A 25.306 25.306 0 0 1 8.8 28 Q 8.8 29.968 8.507 31.496 A 12.311 12.311 0 0 1 8.4 32 A 11.741 11.741 0 0 1 8.644 33.313 Q 8.737 34.018 8.774 34.833 A 25.306 25.306 0 0 1 8.8 36 Q 8.8 37.968 8.507 39.496 A 12.311 12.311 0 0 1 8.4 40 A 11.741 11.741 0 0 1 8.644 41.313 Q 8.737 42.018 8.774 42.833 A 25.306 25.306 0 0 1 8.8 44 Q 8.8 45.968 8.507 47.496 A 12.311 12.311 0 0 1 8.4 48 A 11.741 11.741 0 0 1 8.644 49.313 Q 8.737 50.018 8.774 50.833 A 25.306 25.306 0 0 1 8.8 52 Q 8.8 53.968 8.507 55.496 A 12.311 12.311 0 0 1 8.4 56 L 0.4 56 A 13.936 13.936 0 0 1 0.127 54.398 Q 0 53.294 0 52 A 23.85 23.85 0 0 1 0.054 50.345 Q 0.147 49.013 0.4 48 A 13.936 13.936 0 0 1 0.127 46.398 Q 0 45.294 0 44 A 23.85 23.85 0 0 1 0.054 42.345 Q 0.147 41.013 0.4 40 A 13.936 13.936 0 0 1 0.127 38.398 Q 0 37.294 0 36 A 23.85 23.85 0 0 1 0.054 34.345 Q 0.147 33.013 0.4 32 A 13.936 13.936 0 0 1 0.127 30.398 Q 0 29.294 0 28 A 23.85 23.85 0 0 1 0.054 26.345 Q 0.147 25.013 0.4 24 A 13.936 13.936 0 0 1 0.127 22.398 Q 0 21.294 0 20 A 23.85 23.85 0 0 1 0.054 18.345 Q 0.147 17.013 0.4 16 L 5.4 16 A 11.741 11.741 0 0 1 5.644 17.313 Q 5.737 18.018 5.774 18.833 A 25.306 25.306 0 0 1 5.8 20 Q 5.8 21.968 5.507 23.496 A 12.311 12.311 0 0 1 5.4 24 Z M 352.4 24 L 349.4 24 A 11.741 11.741 0 0 1 349.644 25.313 Q 349.737 26.018 349.774 26.833 A 25.306 25.306 0 0 1 349.8 28 Q 349.8 29.968 349.507 31.496 A 12.311 12.311 0 0 1 349.4 32 L 346.4 32 Q 346.698 33.194 346.774 34.833 A 25.306 25.306 0 0 1 346.8 36 Q 346.8 37.968 346.507 39.496 A 12.311 12.311 0 0 1 346.4 40 L 344.4 40 Q 344.698 41.194 344.774 42.833 A 25.306 25.306 0 0 1 344.8 44 Q 344.8 45.968 344.507 47.496 A 12.311 12.311 0 0 1 344.4 48 L 340.4 48 Q 340.698 49.194 340.774 50.833 A 25.306 25.306 0 0 1 340.8 52 Q 340.8 53.968 340.507 55.496 A 12.311 12.311 0 0 1 340.4 56 L 332.4 56 A 13.936 13.936 0 0 1 332.127 54.398 Q 332 53.294 332 52 A 23.85 23.85 0 0 1 332.054 50.345 Q 332.147 49.013 332.4 48 L 328.4 48 A 13.936 13.936 0 0 1 328.127 46.398 Q 328 45.294 328 44 A 23.85 23.85 0 0 1 328.054 42.345 Q 328.147 41.013 328.4 40 L 326.4 40 A 13.936 13.936 0 0 1 326.127 38.398 Q 326 37.294 326 36 A 23.85 23.85 0 0 1 326.054 34.345 Q 326.147 33.013 326.4 32 L 323.4 32 A 13.936 13.936 0 0 1 323.127 30.398 Q 323 29.294 323 28 A 23.85 23.85 0 0 1 323.054 26.345 Q 323.147 25.013 323.4 24 L 320.4 24 A 13.936 13.936 0 0 1 320.127 22.398 Q 320 21.294 320 20 A 23.85 23.85 0 0 1 320.054 18.345 Q 320.147 17.013 320.4 16 L 328.4 16 A 11.741 11.741 0 0 1 328.644 17.313 Q 328.737 18.018 328.774 18.833 A 25.306 25.306 0 0 1 328.8 20 Q 328.8 21.968 328.507 23.496 A 12.311 12.311 0 0 1 328.4 24 L 331.4 24 A 11.741 11.741 0 0 1 331.644 25.313 Q 331.737 26.018 331.774 26.833 A 25.306 25.306 0 0 1 331.8 28 Q 331.8 29.968 331.507 31.496 A 12.311 12.311 0 0 1 331.4 32 L 334.4 32 A 11.741 11.741 0 0 1 334.644 33.313 Q 334.737 34.018 334.774 34.833 A 25.306 25.306 0 0 1 334.8 36 Q 334.8 37.968 334.507 39.496 A 12.311 12.311 0 0 1 334.4 40 L 338.4 40 A 13.936 13.936 0 0 1 338.127 38.398 Q 338 37.294 338 36 A 23.85 23.85 0 0 1 338.054 34.345 Q 338.147 33.013 338.4 32 L 341.4 32 A 13.936 13.936 0 0 1 341.127 30.398 Q 341 29.294 341 28 A 23.85 23.85 0 0 1 341.054 26.345 Q 341.147 25.013 341.4 24 L 344.4 24 A 13.936 13.936 0 0 1 344.127 22.398 Q 344 21.294 344 20 A 23.85 23.85 0 0 1 344.054 18.345 Q 344.147 17.013 344.4 16 L 352.4 16 Q 352.698 17.194 352.774 18.833 A 25.306 25.306 0 0 1 352.8 20 Q 352.8 21.968 352.507 23.496 A 12.311 12.311 0 0 1 352.4 24 Z M 312.4 40 L 291.4 40 A 11.741 11.741 0 0 1 291.644 41.313 Q 291.737 42.018 291.774 42.833 A 25.306 25.306 0 0 1 291.8 44 Q 291.8 45.968 291.507 47.496 A 12.311 12.311 0 0 1 291.4 48 L 308.4 48 A 11.741 11.741 0 0 1 308.644 49.313 Q 308.737 50.018 308.774 50.833 A 25.306 25.306 0 0 1 308.8 52 Q 308.8 53.968 308.507 55.496 A 12.311 12.311 0 0 1 308.4 56 L 288.4 56 A 13.936 13.936 0 0 1 288.127 54.398 Q 288 53.294 288 52 A 23.85 23.85 0 0 1 288.054 50.345 Q 288.147 49.013 288.4 48 L 283.4 48 A 13.936 13.936 0 0 1 283.127 46.398 Q 283 45.294 283 44 A 23.85 23.85 0 0 1 283.054 42.345 Q 283.147 41.013 283.4 40 L 280.4 40 A 13.936 13.936 0 0 1 280.127 38.398 Q 280 37.294 280 36 A 23.85 23.85 0 0 1 280.054 34.345 Q 280.147 33.013 280.4 32 L 283.4 32 A 13.936 13.936 0 0 1 283.127 30.398 Q 283 29.294 283 28 A 23.85 23.85 0 0 1 283.054 26.345 Q 283.147 25.013 283.4 24 L 288.4 24 A 13.936 13.936 0 0 1 288.127 22.398 Q 288 21.294 288 20 A 23.85 23.85 0 0 1 288.054 18.345 Q 288.147 17.013 288.4 16 L 308.4 16 A 11.741 11.741 0 0 1 308.644 17.313 Q 308.737 18.018 308.774 18.833 A 25.306 25.306 0 0 1 308.8 20 Q 308.8 21.968 308.507 23.496 A 12.311 12.311 0 0 1 308.4 24 L 312.4 24 Q 312.698 25.194 312.774 26.833 A 25.306 25.306 0 0 1 312.8 28 Q 312.8 29.968 312.507 31.496 A 12.311 12.311 0 0 1 312.4 32 Q 312.698 33.194 312.774 34.833 A 25.306 25.306 0 0 1 312.8 36 Q 312.8 37.968 312.507 39.496 A 12.311 12.311 0 0 1 312.4 40 Z M 259.4 24 L 249.4 24 A 11.741 11.741 0 0 1 249.644 25.313 Q 249.737 26.018 249.774 26.833 A 25.306 25.306 0 0 1 249.8 28 Q 249.8 29.968 249.507 31.496 A 12.311 12.311 0 0 1 249.4 32 L 246.4 32 A 11.741 11.741 0 0 1 246.644 33.313 Q 246.737 34.018 246.774 34.833 A 25.306 25.306 0 0 1 246.8 36 Q 246.8 37.968 246.507 39.496 A 12.311 12.311 0 0 1 246.4 40 L 249.4 40 A 11.741 11.741 0 0 1 249.644 41.313 Q 249.737 42.018 249.774 42.833 A 25.306 25.306 0 0 1 249.8 44 Q 249.8 45.968 249.507 47.496 A 12.311 12.311 0 0 1 249.4 48 L 259.4 48 Q 259.698 49.194 259.774 50.833 A 25.306 25.306 0 0 1 259.8 52 Q 259.8 53.968 259.507 55.496 A 12.311 12.311 0 0 1 259.4 56 L 248.4 56 A 13.936 13.936 0 0 1 248.127 54.398 Q 248 53.294 248 52 A 23.85 23.85 0 0 1 248.054 50.345 Q 248.147 49.013 248.4 48 L 243.4 48 A 13.936 13.936 0 0 1 243.127 46.398 Q 243 45.294 243 44 A 23.85 23.85 0 0 1 243.054 42.345 Q 243.147 41.013 243.4 40 L 240.4 40 A 13.936 13.936 0 0 1 240.127 38.398 Q 240 37.294 240 36 A 23.85 23.85 0 0 1 240.054 34.345 Q 240.147 33.013 240.4 32 L 243.4 32 A 13.936 13.936 0 0 1 243.127 30.398 Q 243 29.294 243 28 A 23.85 23.85 0 0 1 243.054 26.345 Q 243.147 25.013 243.4 24 L 248.4 24 A 13.936 13.936 0 0 1 248.127 22.398 Q 248 21.294 248 20 A 23.85 23.85 0 0 1 248.054 18.345 Q 248.147 17.013 248.4 16 L 259.4 16 Q 259.698 17.194 259.774 18.833 A 25.306 25.306 0 0 1 259.8 20 Q 259.8 21.968 259.507 23.496 A 12.311 12.311 0 0 1 259.4 24 Z M 272.4 56 L 264.4 56 A 13.936 13.936 0 0 1 264.127 54.398 Q 264 53.294 264 52 A 23.85 23.85 0 0 1 264.054 50.345 Q 264.147 49.013 264.4 48 L 261.4 48 A 13.936 13.936 0 0 1 261.127 46.398 Q 261 45.294 261 44 A 23.85 23.85 0 0 1 261.054 42.345 Q 261.147 41.013 261.4 40 L 264.4 40 A 13.936 13.936 0 0 1 264.127 38.398 Q 264 37.294 264 36 A 23.85 23.85 0 0 1 264.054 34.345 Q 264.147 33.013 264.4 32 L 261.4 32 A 13.936 13.936 0 0 1 261.127 30.398 Q 261 29.294 261 28 A 23.85 23.85 0 0 1 261.054 26.345 Q 261.147 25.013 261.4 24 L 264.4 24 A 13.936 13.936 0 0 1 264.127 22.398 Q 264 21.294 264 20 A 23.85 23.85 0 0 1 264.054 18.345 Q 264.147 17.013 264.4 16 A 13.936 13.936 0 0 1 264.127 14.398 Q 264 13.294 264 12 A 23.85 23.85 0 0 1 264.054 10.345 Q 264.147 9.013 264.4 8 A 13.936 13.936 0 0 1 264.127 6.398 Q 264 5.294 264 4 A 23.85 23.85 0 0 1 264.054 2.345 Q 264.147 1.013 264.4 0 L 272.4 0 Q 272.698 1.194 272.774 2.833 A 25.306 25.306 0 0 1 272.8 4 Q 272.8 5.968 272.507 7.496 A 12.311 12.311 0 0 1 272.4 8 Q 272.698 9.194 272.774 10.833 A 25.306 25.306 0 0 1 272.8 12 Q 272.8 13.968 272.507 15.496 A 12.311 12.311 0 0 1 272.4 16 Q 272.698 17.194 272.774 18.833 A 25.306 25.306 0 0 1 272.8 20 Q 272.8 21.968 272.507 23.496 A 12.311 12.311 0 0 1 272.4 24 Q 272.698 25.194 272.774 26.833 A 25.306 25.306 0 0 1 272.8 28 Q 272.8 29.968 272.507 31.496 A 12.311 12.311 0 0 1 272.4 32 Q 272.698 33.194 272.774 34.833 A 25.306 25.306 0 0 1 272.8 36 Q 272.8 37.968 272.507 39.496 A 12.311 12.311 0 0 1 272.4 40 Q 272.698 41.194 272.774 42.833 A 25.306 25.306 0 0 1 272.8 44 Q 272.8 45.968 272.507 47.496 A 12.311 12.311 0 0 1 272.4 48 Q 272.698 49.194 272.774 50.833 A 25.306 25.306 0 0 1 272.8 52 Q 272.8 53.968 272.507 55.496 A 12.311 12.311 0 0 1 272.4 56 Z M 68.4 56 L 44.4 56 A 13.936 13.936 0 0 1 44.127 54.398 Q 44 53.294 44 52 A 23.85 23.85 0 0 1 44.054 50.345 Q 44.147 49.013 44.4 48 L 52.4 48 A 13.936 13.936 0 0 1 52.127 46.398 Q 52 45.294 52 44 A 23.85 23.85 0 0 1 52.054 42.345 Q 52.147 41.013 52.4 40 A 13.936 13.936 0 0 1 52.127 38.398 Q 52 37.294 52 36 A 23.85 23.85 0 0 1 52.054 34.345 Q 52.147 33.013 52.4 32 A 13.936 13.936 0 0 1 52.127 30.398 Q 52 29.294 52 28 A 23.85 23.85 0 0 1 52.054 26.345 Q 52.147 25.013 52.4 24 L 46.4 24 A 13.936 13.936 0 0 1 46.127 22.398 Q 46 21.294 46 20 A 23.85 23.85 0 0 1 46.054 18.345 Q 46.147 17.013 46.4 16 L 60.4 16 Q 60.698 17.194 60.774 18.833 A 25.306 25.306 0 0 1 60.8 20 Q 60.8 21.968 60.507 23.496 A 12.311 12.311 0 0 1 60.4 24 Q 60.698 25.194 60.774 26.833 A 25.306 25.306 0 0 1 60.8 28 Q 60.8 29.968 60.507 31.496 A 12.311 12.311 0 0 1 60.4 32 Q 60.698 33.194 60.774 34.833 A 25.306 25.306 0 0 1 60.8 36 Q 60.8 37.968 60.507 39.496 A 12.311 12.311 0 0 1 60.4 40 Q 60.698 41.194 60.774 42.833 A 25.306 25.306 0 0 1 60.8 44 Q 60.8 45.968 60.507 47.496 A 12.311 12.311 0 0 1 60.4 48 L 68.4 48 A 11.741 11.741 0 0 1 68.644 49.313 Q 68.737 50.018 68.774 50.833 A 25.306 25.306 0 0 1 68.8 52 Q 68.8 53.968 68.507 55.496 A 12.311 12.311 0 0 1 68.4 56 Z M 19.4 24 L 24.4 24 Q 24.147 25.013 24.054 26.345 A 23.85 23.85 0 0 0 24 28 Q 24 29.294 24.127 30.398 A 13.936 13.936 0 0 0 24.4 32 Q 24.147 33.013 24.054 34.345 A 23.85 23.85 0 0 0 24 36 Q 24 37.294 24.127 38.398 A 13.936 13.936 0 0 0 24.4 40 Q 24.147 41.013 24.054 42.345 A 23.85 23.85 0 0 0 24 44 Q 24 45.294 24.127 46.398 A 13.936 13.936 0 0 0 24.4 48 Q 24.147 49.013 24.054 50.345 A 23.85 23.85 0 0 0 24 52 Q 24 53.294 24.127 54.398 A 13.936 13.936 0 0 0 24.4 56 L 32.4 56 A 12.311 12.311 0 0 0 32.507 55.496 Q 32.8 53.968 32.8 52 A 25.306 25.306 0 0 0 32.774 50.833 Q 32.698 49.194 32.4 48 A 12.311 12.311 0 0 0 32.507 47.496 Q 32.8 45.968 32.8 44 A 25.306 25.306 0 0 0 32.774 42.833 Q 32.698 41.194 32.4 40 A 12.311 12.311 0 0 0 32.507 39.496 Q 32.8 37.968 32.8 36 A 25.306 25.306 0 0 0 32.774 34.833 Q 32.698 33.194 32.4 32 A 12.311 12.311 0 0 0 32.507 31.496 Q 32.8 29.968 32.8 28 A 25.306 25.306 0 0 0 32.774 26.833 Q 32.698 25.194 32.4 24 L 28.4 24 A 12.311 12.311 0 0 0 28.507 23.496 Q 28.8 21.968 28.8 20 A 25.306 25.306 0 0 0 28.774 18.833 Q 28.737 18.018 28.644 17.313 A 11.741 11.741 0 0 0 28.4 16 L 19.4 16 Q 19.147 17.013 19.054 18.345 A 23.85 23.85 0 0 0 19 20 Q 19 21.294 19.127 22.398 A 13.936 13.936 0 0 0 19.4 24 Z M 304.4 24 L 291.4 24 A 11.741 11.741 0 0 1 291.644 25.313 Q 291.737 26.018 291.774 26.833 A 25.306 25.306 0 0 1 291.8 28 Q 291.8 29.968 291.507 31.496 A 12.311 12.311 0 0 1 291.4 32 L 304.4 32 A 13.936 13.936 0 0 1 304.127 30.398 Q 304 29.294 304 28 A 23.85 23.85 0 0 1 304.054 26.345 Q 304.147 25.013 304.4 24 Z M 60.4 8 L 52.4 8 A 13.936 13.936 0 0 1 52.127 6.398 Q 52 5.294 52 4 A 23.85 23.85 0 0 1 52.054 2.345 Q 52.147 1.013 52.4 0 L 60.4 0 Q 60.698 1.194 60.774 2.833 A 25.306 25.306 0 0 1 60.8 4 Q 60.8 5.968 60.507 7.496 A 12.311 12.311 0 0 1 60.4 8 Z M 19.4 24 Q 19.698 25.194 19.774 26.833" vector-effect="non-scaling-stroke"/></g></svg>